<svg height="4958" width="720" xmlns="http://www.w3.org/2000/svg">
<rect height="4958" fill="#555" width="720"></rect>
<text fill="#7f7" font-family="Courier New" font-size="12" xml:space="preserve">
<tspan x="10" y="26">36 megabytes installed</tspan>
<tspan x="10" y="42"></tspan>
<tspan x="10" y="58">node_modules</tspan>
<tspan x="10" y="74">└─┬ grunt-contrib-nodeunit@1.0.0 </tspan>
<tspan x="10" y="90">  └─┬ nodeunit@0.9.5 </tspan>
<tspan x="10" y="106">    └─┬ tap@7.1.2 </tspan>
<tspan x="10" y="122">      ├── bluebird@3.5.0 </tspan>
<tspan x="10" y="138">      ├── clean-yaml-object@0.1.0 </tspan>
<tspan x="10" y="154">      ├── color-support@1.1.2 </tspan>
<tspan x="10" y="170">      ├─┬ coveralls@2.13.0 </tspan>
<tspan x="10" y="186">      │ ├─┬ js-yaml@3.6.1 </tspan>
<tspan x="10" y="202">      │ │ └── esprima@2.7.3 </tspan>
<tspan x="10" y="218">      │ ├── lcov-parse@0.0.10 </tspan>
<tspan x="10" y="234">      │ ├── log-driver@1.2.5 </tspan>
<tspan x="10" y="250">      │ ├── minimist@1.2.0 </tspan>
<tspan x="10" y="266">      │ └─┬ request@2.79.0 </tspan>
<tspan x="10" y="282">      │   ├── aws-sign2@0.6.0 </tspan>
<tspan x="10" y="298">      │   ├── aws4@1.6.0 </tspan>
<tspan x="10" y="314">      │   ├── caseless@0.11.0 </tspan>
<tspan x="10" y="330">      │   ├─┬ combined-stream@1.0.5 </tspan>
<tspan x="10" y="346">      │   │ └── delayed-stream@1.0.0 </tspan>
<tspan x="10" y="362">      │   ├── extend@3.0.0 </tspan>
<tspan x="10" y="378">      │   ├── forever-agent@0.6.1 </tspan>
<tspan x="10" y="394">      │   ├─┬ form-data@2.1.4 </tspan>
<tspan x="10" y="410">      │   │ └── asynckit@0.4.0 </tspan>
<tspan x="10" y="426">      │   ├─┬ har-validator@2.0.6 </tspan>
<tspan x="10" y="442">      │   │ ├─┬ chalk@1.1.3 </tspan>
<tspan x="10" y="458">      │   │ │ ├── ansi-styles@2.2.1 </tspan>
<tspan x="10" y="474">      │   │ │ ├── has-ansi@2.0.0 </tspan>
<tspan x="10" y="490">      │   │ │ └── supports-color@2.0.0 </tspan>
<tspan x="10" y="506">      │   │ ├─┬ commander@2.9.0 </tspan>
<tspan x="10" y="522">      │   │ │ └── graceful-readlink@1.0.1 </tspan>
<tspan x="10" y="538">      │   │ ├─┬ is-my-json-valid@2.16.0 </tspan>
<tspan x="10" y="554">      │   │ │ ├── generate-function@2.0.0 </tspan>
<tspan x="10" y="570">      │   │ │ ├─┬ generate-object-property@1.2.0 </tspan>
<tspan x="10" y="586">      │   │ │ │ └── is-property@1.0.2 </tspan>
<tspan x="10" y="602">      │   │ │ ├── jsonpointer@4.0.1 </tspan>
<tspan x="10" y="618">      │   │ │ └── xtend@4.0.1 </tspan>
<tspan x="10" y="634">      │   │ └─┬ pinkie-promise@2.0.1 </tspan>
<tspan x="10" y="650">      │   │   └── pinkie@2.0.4 </tspan>
<tspan x="10" y="666">      │   ├─┬ hawk@3.1.3 </tspan>
<tspan x="10" y="682">      │   │ ├── boom@2.10.1 </tspan>
<tspan x="10" y="698">      │   │ ├── cryptiles@2.0.5 </tspan>
<tspan x="10" y="714">      │   │ ├── hoek@2.16.3 </tspan>
<tspan x="10" y="730">      │   │ └── sntp@1.0.9 </tspan>
<tspan x="10" y="746">      │   ├─┬ http-signature@1.1.1 </tspan>
<tspan x="10" y="762">      │   │ ├── assert-plus@0.2.0 </tspan>
<tspan x="10" y="778">      │   │ ├─┬ jsprim@1.4.0 </tspan>
<tspan x="10" y="794">      │   │ │ ├── assert-plus@1.0.0 </tspan>
<tspan x="10" y="810">      │   │ │ ├── extsprintf@1.0.2 </tspan>
<tspan x="10" y="826">      │   │ │ ├── json-schema@0.2.3 </tspan>
<tspan x="10" y="842">      │   │ │ └── verror@1.3.6 </tspan>
<tspan x="10" y="858">      │   │ └─┬ sshpk@1.13.0 </tspan>
<tspan x="10" y="874">      │   │   ├── asn1@0.2.3 </tspan>
<tspan x="10" y="890">      │   │   ├── assert-plus@1.0.0 </tspan>
<tspan x="10" y="906">      │   │   ├── bcrypt-pbkdf@1.0.1 </tspan>
<tspan x="10" y="922">      │   │   ├─┬ dashdash@1.14.1 </tspan>
<tspan x="10" y="938">      │   │   │ └── assert-plus@1.0.0 </tspan>
<tspan x="10" y="954">      │   │   ├── ecc-jsbn@0.1.1 </tspan>
<tspan x="10" y="970">      │   │   ├─┬ getpass@0.1.7 </tspan>
<tspan x="10" y="986">      │   │   │ └── assert-plus@1.0.0 </tspan>
<tspan x="10" y="1002">      │   │   ├── jodid25519@1.0.2 </tspan>
<tspan x="10" y="1018">      │   │   ├── jsbn@0.1.1 </tspan>
<tspan x="10" y="1034">      │   │   └── tweetnacl@0.14.5 </tspan>
<tspan x="10" y="1050">      │   ├── is-typedarray@1.0.0 </tspan>
<tspan x="10" y="1066">      │   ├── isstream@0.1.2 </tspan>
<tspan x="10" y="1082">      │   ├── json-stringify-safe@5.0.1 </tspan>
<tspan x="10" y="1098">      │   ├─┬ mime-types@2.1.15 </tspan>
<tspan x="10" y="1114">      │   │ └── mime-db@1.27.0 </tspan>
<tspan x="10" y="1130">      │   ├── oauth-sign@0.8.2 </tspan>
<tspan x="10" y="1146">      │   ├── qs@6.3.2 </tspan>
<tspan x="10" y="1162">      │   ├── stringstream@0.0.5 </tspan>
<tspan x="10" y="1178">      │   ├── tough-cookie@2.3.2 </tspan>
<tspan x="10" y="1194">      │   ├── tunnel-agent@0.4.3 </tspan>
<tspan x="10" y="1210">      │   └── uuid@3.0.1 </tspan>
<tspan x="10" y="1226">      ├── deeper@2.1.0 </tspan>
<tspan x="10" y="1242">      ├─┬ foreground-child@1.5.6 </tspan>
<tspan x="10" y="1258">      │ └─┬ cross-spawn@4.0.2 </tspan>
<tspan x="10" y="1274">      │   ├─┬ lru-cache@4.0.2 </tspan>
<tspan x="10" y="1290">      │   │ ├── pseudomap@1.0.2 </tspan>
<tspan x="10" y="1306">      │   │ └── yallist@2.1.2 </tspan>
<tspan x="10" y="1322">      │   └─┬ which@1.2.14 </tspan>
<tspan x="10" y="1338">      │     └── isexe@2.0.0 </tspan>
<tspan x="10" y="1354">      ├─┬ glob@7.1.1 </tspan>
<tspan x="10" y="1370">      │ ├── fs.realpath@1.0.0 </tspan>
<tspan x="10" y="1386">      │ ├─┬ inflight@1.0.6 </tspan>
<tspan x="10" y="1402">      │ │ └── wrappy@1.0.2 </tspan>
<tspan x="10" y="1418">      │ ├── inherits@2.0.3 </tspan>
<tspan x="10" y="1434">      │ ├─┬ minimatch@3.0.3 </tspan>
<tspan x="10" y="1450">      │ │ └─┬ brace-expansion@1.1.7 </tspan>
<tspan x="10" y="1466">      │ │   ├── balanced-match@0.4.2 </tspan>
<tspan x="10" y="1482">      │ │   └── concat-map@0.0.1 </tspan>
<tspan x="10" y="1498">      │ ├── once@1.4.0 </tspan>
<tspan x="10" y="1514">      │ └── path-is-absolute@1.0.1 </tspan>
<tspan x="10" y="1530">      ├── isexe@1.1.2 </tspan>
<tspan x="10" y="1546">      ├─┬ js-yaml@3.8.3 </tspan>
<tspan x="10" y="1562">      │ ├─┬ argparse@1.0.9 </tspan>
<tspan x="10" y="1578">      │ │ └── sprintf-js@1.0.3 </tspan>
<tspan x="10" y="1594">      │ └── esprima@3.1.3 </tspan>
<tspan x="10" y="1610">      ├─┬ nyc@7.1.0 </tspan>
<tspan x="10" y="1626">      │ ├── arrify@1.0.1 </tspan>
<tspan x="10" y="1642">      │ ├─┬ caching-transform@1.0.1 </tspan>
<tspan x="10" y="1658">      │ │ └─┬ write-file-atomic@1.1.4 </tspan>
<tspan x="10" y="1674">      │ │   ├── graceful-fs@4.1.4 </tspan>
<tspan x="10" y="1690">      │ │   ├── imurmurhash@0.1.4 </tspan>
<tspan x="10" y="1706">      │ │   └── slide@1.1.6 </tspan>
<tspan x="10" y="1722">      │ ├── convert-source-map@1.3.0 </tspan>
<tspan x="10" y="1738">      │ ├─┬ default-require-extensions@1.0.0 </tspan>
<tspan x="10" y="1754">      │ │ └─┬ strip-bom@2.0.0 </tspan>
<tspan x="10" y="1770">      │ │   └── is-utf8@0.2.1 </tspan>
<tspan x="10" y="1786">      │ ├─┬ find-cache-dir@0.1.1 </tspan>
<tspan x="10" y="1802">      │ │ ├── commondir@1.0.1 </tspan>
<tspan x="10" y="1818">      │ │ └── pkg-dir@1.0.0 </tspan>
<tspan x="10" y="1834">      │ ├─┬ find-up@1.1.2 </tspan>
<tspan x="10" y="1850">      │ │ ├── path-exists@2.1.0 </tspan>
<tspan x="10" y="1866">      │ │ └─┬ pinkie-promise@2.0.1 </tspan>
<tspan x="10" y="1882">      │ │   └── pinkie@2.0.4 </tspan>
<tspan x="10" y="1898">      │ ├─┬ foreground-child@1.5.3 </tspan>
<tspan x="10" y="1914">      │ │ └─┬ cross-spawn@4.0.0 </tspan>
<tspan x="10" y="1930">      │ │   └─┬ lru-cache@4.0.1 </tspan>
<tspan x="10" y="1946">      │ │     ├── pseudomap@1.0.2 </tspan>
<tspan x="10" y="1962">      │ │     └── yallist@2.0.0 </tspan>
<tspan x="10" y="1978">      │ ├─┬ glob@7.0.5 </tspan>
<tspan x="10" y="1994">      │ │ ├── fs.realpath@1.0.0 </tspan>
<tspan x="10" y="2010">      │ │ ├─┬ inflight@1.0.5 </tspan>
<tspan x="10" y="2026">      │ │ │ └── wrappy@1.0.2 </tspan>
<tspan x="10" y="2042">      │ │ ├── inherits@2.0.1 </tspan>
<tspan x="10" y="2058">      │ │ ├─┬ minimatch@3.0.2 </tspan>
<tspan x="10" y="2074">      │ │ │ └─┬ brace-expansion@1.1.6 </tspan>
<tspan x="10" y="2090">      │ │ │   ├── balanced-match@0.4.2 </tspan>
<tspan x="10" y="2106">      │ │ │   └── concat-map@0.0.1 </tspan>
<tspan x="10" y="2122">      │ │ ├── once@1.3.3 </tspan>
<tspan x="10" y="2138">      │ │ └── path-is-absolute@1.0.0 </tspan>
<tspan x="10" y="2154">      │ ├── istanbul-lib-coverage@1.0.0-alpha.4 </tspan>
<tspan x="10" y="2170">      │ ├─┬ istanbul-lib-hook@1.0.0-alpha.4 </tspan>
<tspan x="10" y="2186">      │ │ └── append-transform@0.3.0 </tspan>
<tspan x="10" y="2202">      │ ├─┬ istanbul-lib-instrument@1.1.0-alpha.4 </tspan>
<tspan x="10" y="2218">      │ │ ├─┬ babel-generator@6.11.4 </tspan>
<tspan x="10" y="2234">      │ │ │ ├── babel-messages@6.8.0 </tspan>
<tspan x="10" y="2250">      │ │ │ ├─┬ babel-runtime@6.9.2 </tspan>
<tspan x="10" y="2266">      │ │ │ │ ├── core-js@2.4.1 </tspan>
<tspan x="10" y="2282">      │ │ │ │ └── regenerator-runtime@0.9.5 </tspan>
<tspan x="10" y="2298">      │ │ │ ├─┬ detect-indent@3.0.1 </tspan>
<tspan x="10" y="2314">      │ │ │ │ ├── get-stdin@4.0.1 </tspan>
<tspan x="10" y="2330">      │ │ │ │ ├── minimist@1.2.0 </tspan>
<tspan x="10" y="2346">      │ │ │ │ └─┬ repeating@1.1.3 </tspan>
<tspan x="10" y="2362">      │ │ │ │   └── is-finite@1.0.1 </tspan>
<tspan x="10" y="2378">      │ │ │ └── lodash@4.13.1 </tspan>
<tspan x="10" y="2394">      │ │ ├── babel-template@6.9.0 </tspan>
<tspan x="10" y="2410">      │ │ ├─┬ babel-traverse@6.11.4 </tspan>
<tspan x="10" y="2426">      │ │ │ ├─┬ babel-code-frame@6.11.0 </tspan>
<tspan x="10" y="2442">      │ │ │ │ ├─┬ chalk@1.1.3 </tspan>
<tspan x="10" y="2458">      │ │ │ │ │ ├── ansi-styles@2.2.1 </tspan>
<tspan x="10" y="2474">      │ │ │ │ │ ├── escape-string-regexp@1.0.5 </tspan>
<tspan x="10" y="2490">      │ │ │ │ │ ├── has-ansi@2.0.0 </tspan>
<tspan x="10" y="2506">      │ │ │ │ │ └── supports-color@2.0.0 </tspan>
<tspan x="10" y="2522">      │ │ │ │ └── js-tokens@2.0.0 </tspan>
<tspan x="10" y="2538">      │ │ │ ├─┬ debug@2.2.0 </tspan>
<tspan x="10" y="2554">      │ │ │ │ └── ms@0.7.1 </tspan>
<tspan x="10" y="2570">      │ │ │ ├── globals@8.18.0 </tspan>
<tspan x="10" y="2586">      │ │ │ └─┬ invariant@2.2.1 </tspan>
<tspan x="10" y="2602">      │ │ │   └─┬ loose-envify@1.2.0 </tspan>
<tspan x="10" y="2618">      │ │ │     └── js-tokens@1.0.3 </tspan>
<tspan x="10" y="2634">      │ │ ├─┬ babel-types@6.11.1 </tspan>
<tspan x="10" y="2650">      │ │ │ ├── esutils@2.0.2 </tspan>
<tspan x="10" y="2666">      │ │ │ └── to-fast-properties@1.0.2 </tspan>
<tspan x="10" y="2682">      │ │ └── babylon@6.8.4 </tspan>
<tspan x="10" y="2698">      │ ├─┬ istanbul-lib-report@1.0.0-alpha.3 </tspan>
<tspan x="10" y="2714">      │ │ ├── async@1.5.2 </tspan>
<tspan x="10" y="2730">      │ │ ├── path-parse@1.0.5 </tspan>
<tspan x="10" y="2746">      │ │ └─┬ supports-color@3.1.2 </tspan>
<tspan x="10" y="2762">      │ │   └── has-flag@1.0.0 </tspan>
<tspan x="10" y="2778">      │ ├─┬ istanbul-lib-source-maps@1.0.0-alpha.10 </tspan>
<tspan x="10" y="2794">      │ │ └── source-map@0.5.6 </tspan>
<tspan x="10" y="2810">      │ ├─┬ istanbul-reports@1.0.0-alpha.8 </tspan>
<tspan x="10" y="2826">      │ │ └─┬ handlebars@4.0.5 </tspan>
<tspan x="10" y="2842">      │ │   ├─┬ optimist@0.6.1 </tspan>
<tspan x="10" y="2858">      │ │   │ └── wordwrap@0.0.3 </tspan>
<tspan x="10" y="2874">      │ │   ├─┬ source-map@0.4.4 </tspan>
<tspan x="10" y="2890">      │ │   │ └── amdefine@1.0.0 </tspan>
<tspan x="10" y="2906">      │ │   └─┬ uglify-js@2.7.0 </tspan>
<tspan x="10" y="2922">      │ │     ├── async@0.2.10 </tspan>
<tspan x="10" y="2938">      │ │     ├── uglify-to-browserify@1.0.2 </tspan>
<tspan x="10" y="2954">      │ │     └─┬ yargs@3.10.0 </tspan>
<tspan x="10" y="2970">      │ │       ├── camelcase@1.2.1 </tspan>
<tspan x="10" y="2986">      │ │       ├─┬ cliui@2.1.0 </tspan>
<tspan x="10" y="3002">      │ │       │ ├─┬ center-align@0.1.3 </tspan>
<tspan x="10" y="3018">      │ │       │ │ ├─┬ align-text@0.1.4 </tspan>
<tspan x="10" y="3034">      │ │       │ │ │ └── longest@1.0.1 </tspan>
<tspan x="10" y="3050">      │ │       │ │ └── lazy-cache@1.0.4 </tspan>
<tspan x="10" y="3066">      │ │       │ ├── right-align@0.1.3 </tspan>
<tspan x="10" y="3082">      │ │       │ └── wordwrap@0.0.2 </tspan>
<tspan x="10" y="3098">      │ │       └── window-size@0.1.0 </tspan>
<tspan x="10" y="3114">      │ ├─┬ md5-hex@1.3.0 </tspan>
<tspan x="10" y="3130">      │ │ └── md5-o-matic@0.1.1 </tspan>
<tspan x="10" y="3146">      │ ├─┬ micromatch@2.3.11 </tspan>
<tspan x="10" y="3162">      │ │ ├─┬ arr-diff@2.0.0 </tspan>
<tspan x="10" y="3178">      │ │ │ └── arr-flatten@1.0.1 </tspan>
<tspan x="10" y="3194">      │ │ ├── array-unique@0.2.1 </tspan>
<tspan x="10" y="3210">      │ │ ├─┬ braces@1.8.5 </tspan>
<tspan x="10" y="3226">      │ │ │ ├─┬ expand-range@1.8.2 </tspan>
<tspan x="10" y="3242">      │ │ │ │ └─┬ fill-range@2.2.3 </tspan>
<tspan x="10" y="3258">      │ │ │ │   ├── is-number@2.1.0 </tspan>
<tspan x="10" y="3274">      │ │ │ │   ├─┬ isobject@2.1.0 </tspan>
<tspan x="10" y="3290">      │ │ │ │   │ └── isarray@1.0.0 </tspan>
<tspan x="10" y="3306">      │ │ │ │   ├── randomatic@1.1.5 </tspan>
<tspan x="10" y="3322">      │ │ │ │   └── repeat-string@1.5.4 </tspan>
<tspan x="10" y="3338">      │ │ │ ├── preserve@0.2.0 </tspan>
<tspan x="10" y="3354">      │ │ │ └── repeat-element@1.1.2 </tspan>
<tspan x="10" y="3370">      │ │ ├─┬ expand-brackets@0.1.5 </tspan>
<tspan x="10" y="3386">      │ │ │ └── is-posix-bracket@0.1.1 </tspan>
<tspan x="10" y="3402">      │ │ ├── extglob@0.3.2 </tspan>
<tspan x="10" y="3418">      │ │ ├── filename-regex@2.0.0 </tspan>
<tspan x="10" y="3434">      │ │ ├── is-extglob@1.0.0 </tspan>
<tspan x="10" y="3450">      │ │ ├── is-glob@2.0.1 </tspan>
<tspan x="10" y="3466">      │ │ ├─┬ kind-of@3.0.3 </tspan>
<tspan x="10" y="3482">      │ │ │ └── is-buffer@1.1.3 </tspan>
<tspan x="10" y="3498">      │ │ ├── normalize-path@2.0.1 </tspan>
<tspan x="10" y="3514">      │ │ ├─┬ object.omit@2.0.0 </tspan>
<tspan x="10" y="3530">      │ │ │ ├─┬ for-own@0.1.4 </tspan>
<tspan x="10" y="3546">      │ │ │ │ └── for-in@0.1.5 </tspan>
<tspan x="10" y="3562">      │ │ │ └── is-extendable@0.1.1 </tspan>
<tspan x="10" y="3578">      │ │ ├─┬ parse-glob@3.0.4 </tspan>
<tspan x="10" y="3594">      │ │ │ ├─┬ glob-base@0.3.0 </tspan>
<tspan x="10" y="3610">      │ │ │ │ └── glob-parent@2.0.0 </tspan>
<tspan x="10" y="3626">      │ │ │ └── is-dotfile@1.0.2 </tspan>
<tspan x="10" y="3642">      │ │ └─┬ regex-cache@0.4.3 </tspan>
<tspan x="10" y="3658">      │ │   ├── is-equal-shallow@0.1.3 </tspan>
<tspan x="10" y="3674">      │ │   └── is-primitive@2.0.0 </tspan>
<tspan x="10" y="3690">      │ ├─┬ mkdirp@0.5.1 </tspan>
<tspan x="10" y="3706">      │ │ └── minimist@0.0.8 </tspan>
<tspan x="10" y="3722">      │ ├── pkg-up@1.0.0 </tspan>
<tspan x="10" y="3738">      │ ├── resolve-from@2.0.0 </tspan>
<tspan x="10" y="3754">      │ ├── rimraf@2.5.4 </tspan>
<tspan x="10" y="3770">      │ ├── signal-exit@3.0.0 </tspan>
<tspan x="10" y="3786">      │ ├─┬ spawn-wrap@1.2.4 </tspan>
<tspan x="10" y="3802">      │ │ ├── os-homedir@1.0.1 </tspan>
<tspan x="10" y="3818">      │ │ ├── signal-exit@2.1.2 </tspan>
<tspan x="10" y="3834">      │ │ └─┬ which@1.2.10 </tspan>
<tspan x="10" y="3850">      │ │   └── isexe@1.1.2 </tspan>
<tspan x="10" y="3866">      │ ├─┬ test-exclude@1.1.0 </tspan>
<tspan x="10" y="3882">      │ │ ├─┬ lodash.assign@4.0.9 </tspan>
<tspan x="10" y="3898">      │ │ │ ├── lodash.keys@4.0.7 </tspan>
<tspan x="10" y="3914">      │ │ │ └── lodash.rest@4.0.3 </tspan>
<tspan x="10" y="3930">      │ │ ├─┬ read-pkg-up@1.0.1 </tspan>
<tspan x="10" y="3946">      │ │ │ └─┬ read-pkg@1.1.0 </tspan>
<tspan x="10" y="3962">      │ │ │   ├─┬ load-json-file@1.1.0 </tspan>
<tspan x="10" y="3978">      │ │ │   │ ├─┬ parse-json@2.2.0 </tspan>
<tspan x="10" y="3994">      │ │ │   │ │ └─┬ error-ex@1.3.0 </tspan>
<tspan x="10" y="4010">      │ │ │   │ │   └── is-arrayish@0.2.1 </tspan>
<tspan x="10" y="4026">      │ │ │   │ └── pify@2.3.0 </tspan>
<tspan x="10" y="4042">      │ │ │   ├─┬ normalize-package-data@2.3.5 </tspan>
<tspan x="10" y="4058">      │ │ │   │ ├── hosted-git-info@2.1.5 </tspan>
<tspan x="10" y="4074">      │ │ │   │ ├─┬ is-builtin-module@1.0.0 </tspan>
<tspan x="10" y="4090">      │ │ │   │ │ └── builtin-modules@1.1.1 </tspan>
<tspan x="10" y="4106">      │ │ │   │ ├── semver@5.3.0 </tspan>
<tspan x="10" y="4122">      │ │ │   │ └─┬ validate-npm-package-license@3.0.1 </tspan>
<tspan x="10" y="4138">      │ │ │   │   ├─┬ spdx-correct@1.0.2 </tspan>
<tspan x="10" y="4154">      │ │ │   │   │ └── spdx-license-ids@1.2.1 </tspan>
<tspan x="10" y="4170">      │ │ │   │   └─┬ spdx-expression-parse@1.0.2 </tspan>
<tspan x="10" y="4186">      │ │ │   │     └── spdx-exceptions@1.0.5 </tspan>
<tspan x="10" y="4202">      │ │ │   └── path-type@1.1.0 </tspan>
<tspan x="10" y="4218">      │ │ └── require-main-filename@1.0.1 </tspan>
<tspan x="10" y="4234">      │ ├─┬ yargs@4.8.1 </tspan>
<tspan x="10" y="4250">      │ │ ├─┬ cliui@3.2.0 </tspan>
<tspan x="10" y="4266">      │ │ │ └── wrap-ansi@2.0.0 </tspan>
<tspan x="10" y="4282">      │ │ ├── decamelize@1.2.0 </tspan>
<tspan x="10" y="4298">      │ │ ├── get-caller-file@1.0.1 </tspan>
<tspan x="10" y="4314">      │ │ ├─┬ os-locale@1.4.0 </tspan>
<tspan x="10" y="4330">      │ │ │ └─┬ lcid@1.0.0 </tspan>
<tspan x="10" y="4346">      │ │ │   └── invert-kv@1.0.0 </tspan>
<tspan x="10" y="4362">      │ │ ├── require-directory@2.1.1 </tspan>
<tspan x="10" y="4378">      │ │ ├── set-blocking@2.0.0 </tspan>
<tspan x="10" y="4394">      │ │ ├─┬ string-width@1.0.1 </tspan>
<tspan x="10" y="4410">      │ │ │ ├─┬ code-point-at@1.0.0 </tspan>
<tspan x="10" y="4426">      │ │ │ │ └── number-is-nan@1.0.0 </tspan>
<tspan x="10" y="4442">      │ │ │ ├── is-fullwidth-code-point@1.0.0 </tspan>
<tspan x="10" y="4458">      │ │ │ └─┬ strip-ansi@3.0.1 </tspan>
<tspan x="10" y="4474">      │ │ │   └── ansi-regex@2.0.0 </tspan>
<tspan x="10" y="4490">      │ │ ├── which-module@1.0.0 </tspan>
<tspan x="10" y="4506">      │ │ ├── window-size@0.2.0 </tspan>
<tspan x="10" y="4522">      │ │ └── y18n@3.2.1 </tspan>
<tspan x="10" y="4538">      │ └─┬ yargs-parser@2.4.1 </tspan>
<tspan x="10" y="4554">      │   └── camelcase@3.0.0 </tspan>
<tspan x="10" y="4570">      ├── only-shallow@1.2.0 </tspan>
<tspan x="10" y="4586">      ├── opener@1.4.3 </tspan>
<tspan x="10" y="4602">      ├── os-homedir@1.0.1 </tspan>
<tspan x="10" y="4618">      ├─┬ readable-stream@2.2.9 </tspan>
<tspan x="10" y="4634">      │ ├── buffer-shims@1.0.0 </tspan>
<tspan x="10" y="4650">      │ ├── core-util-is@1.0.2 </tspan>
<tspan x="10" y="4666">      │ ├── isarray@1.0.0 </tspan>
<tspan x="10" y="4682">      │ ├── process-nextick-args@1.0.7 </tspan>
<tspan x="10" y="4698">      │ ├── string_decoder@1.0.0 </tspan>
<tspan x="10" y="4714">      │ └── util-deprecate@1.0.2 </tspan>
<tspan x="10" y="4730">      ├── signal-exit@3.0.2 </tspan>
<tspan x="10" y="4746">      ├── stack-utils@0.4.0 </tspan>
<tspan x="10" y="4762">      ├─┬ tap-mocha-reporter@2.0.1 </tspan>
<tspan x="10" y="4778">      │ ├─┬ debug@2.6.4 </tspan>
<tspan x="10" y="4794">      │ │ └── ms@0.7.3 </tspan>
<tspan x="10" y="4810">      │ ├── diff@1.4.0 </tspan>
<tspan x="10" y="4826">      │ ├── escape-string-regexp@1.0.5 </tspan>
<tspan x="10" y="4842">      │ └─┬ unicode-length@1.0.3 </tspan>
<tspan x="10" y="4858">      │   ├── punycode@1.4.1 </tspan>
<tspan x="10" y="4874">      │   └─┬ strip-ansi@3.0.1 </tspan>
<tspan x="10" y="4890">      │     └── ansi-regex@2.1.1 </tspan>
<tspan x="10" y="4906">      ├─┬ tap-parser@2.2.3 </tspan>
<tspan x="10" y="4922">      │ └── events-to-array@1.1.2 </tspan>
<tspan x="10" y="4938">      └── tmatch@2.0.1</tspan>
</text>
</svg>
